<svg xmlns="http://www.w3.org/2000/svg" width="760" height="174" viewBox="0 0 760 174" font-family="-apple-system,BlinkMacSystemFont,Segoe UI,Helvetica,Arial,sans-serif"><defs><clipPath id="barClip"><rect width="760" height="14" rx="7.0"/></clipPath><linearGradient id="gloss" x1="0" y1="0" x2="0" y2="1"><stop offset="0%" stop-color="#ffffff" stop-opacity="0.5"/><stop offset="100%" stop-color="#ffffff" stop-opacity="0"/></linearGradient><filter id="barShadow" x="-20%" y="-40%" width="140%" height="220%"><feDropShadow dx="0" dy="2" stdDeviation="3" flood-color="#0A121C" flood-opacity="0.5"/></filter></defs><g filter="url(#barShadow)"><g clip-path="url(#barClip)"><rect x="0.00" width="282.41" height="14" fill="#DA5B0B"/><rect x="282.41" width="144.96" height="14" fill="#563d7c"/><rect x="427.37" width="71.42" height="14" fill="#3178c6"/><rect x="498.79" width="68.80" height="14" fill="#f1e05a"/><rect x="567.59" width="67.82" height="14" fill="#e34c26"/><rect x="635.41" width="33.67" height="14" fill="#3572A5"/><rect x="669.08" width="20.46" height="14" fill="#c6538c"/><rect x="689.54" width="18.57" height="14" fill="#1d365d"/><rect x="708.11" width="16.51" height="14" fill="#4F5D95"/><rect x="724.62" width="9.47" height="14" fill="#878787"/><rect x="734.09" width="8.11" height="14" fill="#f7523f"/><rect x="742.20" width="6.08" height="14" fill="#00B4AB"/><rect x="748.27" width="5.73" height="14" fill="#A97BFF"/><rect x="754.00" width="2.22" height="14" fill="#f34b7d"/><rect x="756.21" width="1.77" height="14" fill="#DA3434"/><rect x="757.98" width="1.04" height="14" fill="#6e4a7e"/><rect x="759.02" width="0.55" height="14" fill="#dea584"/><rect width="760" height="14" fill="url(#gloss)"/></g></g><rect x="0.0" y="29.0" width="10" height="10" rx="2.5" fill="#DA5B0B"/><text x="16.0" y="38.0" font-size="12" fill="#64748B" dominant-baseline="middle">Jupyter Notebook · 37.2%</text><rect x="253.3" y="29.0" width="10" height="10" rx="2.5" fill="#563d7c"/><text x="269.3" y="38.0" font-size="12" fill="#64748B" dominant-baseline="middle">CSS · 19.1%</text><rect x="506.7" y="29.0" width="10" height="10" rx="2.5" fill="#3178c6"/><text x="522.7" y="38.0" font-size="12" fill="#64748B" dominant-baseline="middle">TypeScript · 9.4%</text><rect x="0.0" y="51.0" width="10" height="10" rx="2.5" fill="#f1e05a"/><text x="16.0" y="60.0" font-size="12" fill="#64748B" dominant-baseline="middle">JavaScript · 9.1%</text><rect x="253.3" y="51.0" width="10" height="10" rx="2.5" fill="#e34c26"/><text x="269.3" y="60.0" font-size="12" fill="#64748B" dominant-baseline="middle">HTML · 8.9%</text><rect x="506.7" y="51.0" width="10" height="10" rx="2.5" fill="#3572A5"/><text x="522.7" y="60.0" font-size="12" fill="#64748B" dominant-baseline="middle">Python · 4.4%</text><rect x="0.0" y="73.0" width="10" height="10" rx="2.5" fill="#c6538c"/><text x="16.0" y="82.0" font-size="12" fill="#64748B" dominant-baseline="middle">SCSS · 2.7%</text><rect x="253.3" y="73.0" width="10" height="10" rx="2.5" fill="#1d365d"/><text x="269.3" y="82.0" font-size="12" fill="#64748B" dominant-baseline="middle">Less · 2.4%</text><rect x="506.7" y="73.0" width="10" height="10" rx="2.5" fill="#4F5D95"/><text x="522.7" y="82.0" font-size="12" fill="#64748B" dominant-baseline="middle">PHP · 2.2%</text><rect x="0.0" y="95.0" width="10" height="10" rx="2.5" fill="#878787"/><text x="16.0" y="104.0" font-size="12" fill="#64748B" dominant-baseline="middle">Hack · 1.2%</text><rect x="253.3" y="95.0" width="10" height="10" rx="2.5" fill="#f7523f"/><text x="269.3" y="104.0" font-size="12" fill="#64748B" dominant-baseline="middle">Blade · 1.1%</text><rect x="506.7" y="95.0" width="10" height="10" rx="2.5" fill="#00B4AB"/><text x="522.7" y="104.0" font-size="12" fill="#64748B" dominant-baseline="middle">Dart · 0.8%</text><rect x="0.0" y="117.0" width="10" height="10" rx="2.5" fill="#A97BFF"/><text x="16.0" y="126.0" font-size="12" fill="#64748B" dominant-baseline="middle">Kotlin · 0.8%</text><rect x="253.3" y="117.0" width="10" height="10" rx="2.5" fill="#f34b7d"/><text x="269.3" y="126.0" font-size="12" fill="#64748B" dominant-baseline="middle">C++ · 0.3%</text><rect x="506.7" y="117.0" width="10" height="10" rx="2.5" fill="#DA3434"/><text x="522.7" y="126.0" font-size="12" fill="#64748B" dominant-baseline="middle">CMake · 0.2%</text><rect x="0.0" y="139.0" width="10" height="10" rx="2.5" fill="#6e4a7e"/><text x="16.0" y="148.0" font-size="12" fill="#64748B" dominant-baseline="middle">Elixir · 0.1%</text><rect x="253.3" y="139.0" width="10" height="10" rx="2.5" fill="#dea584"/><text x="269.3" y="148.0" font-size="12" fill="#64748B" dominant-baseline="middle">Rust · 0.1%</text></svg>